<?xml version="1.0" standalone="no"?>
<!DOCTYPE svg PUBLIC "-//W3C//DTD SVG 20010904//EN"
 "http://www.w3.org/TR/2001/REC-SVG-20010904/DTD/svg10.dtd">
<svg version="1.0" xmlns="http://www.w3.org/2000/svg"
 width="800.000000pt" height="800.000000pt" viewBox="0 0 800.000000 800.000000"
 preserveAspectRatio="xMidYMid meet">
<metadata>
Created by potrace 1.11, written by Peter Selinger 2001-2013
</metadata>
<g transform="translate(0.000000,800.000000) scale(0.100000,-0.100000)"
fill="#000000" stroke="none">
<path d="M4540 6900 c-372 -46 -765 -186 -1055 -375 -663 -431 -1185 -1347
-1609 -2822 -266 -925 -497 -2091 -676 -3423 -16 -124 -32 -237 -35 -252 l-4
-28 382 0 382 0 23 251 c13 139 39 392 58 563 316 2821 860 4412 1729 5055
193 142 444 255 685 307 66 15 127 19 270 18 167 0 194 -3 281 -26 349 -95
613 -346 742 -705 61 -169 79 -414 43 -596 -90 -463 -402 -910 -982 -1409
-273 -234 -410 -390 -481 -544 -21 -46 -28 -79 -31 -146 -4 -80 -2 -93 22
-142 78 -159 373 -306 614 -306 278 0 556 151 804 437 382 442 653 926 784
1403 168 611 128 1223 -111 1700 -94 187 -226 368 -386 529 -268 268 -572 429
-940 497 -101 18 -404 27 -509 14z"/>
</g>
</svg>
